<?xml version="1.0" standalone="no"?>
<!DOCTYPE svg PUBLIC "-//W3C//DTD SVG 20010904//EN"
 "http://www.w3.org/TR/2001/REC-SVG-20010904/DTD/svg10.dtd">
<svg version="1.0" xmlns="http://www.w3.org/2000/svg"
 width="300.000000pt" height="300.000000pt" viewBox="0 0 300.000000 300.000000"
 preserveAspectRatio="xMidYMid meet">
<metadata>
Created by potrace 1.10, written by Peter Selinger 2001-2011
</metadata>
<g transform="translate(0.000000,300.000000) scale(0.100000,-0.100000)"
fill="#ffffff" stroke="none">
<path d="M1307 1839 c-295 -21 -570 -91 -642 -163 -62 -62 -14 -112 149 -156
102 -27 137 -24 55 5 -116 40 -149 77 -115 129 77 118 668 206 1086 161 34 -4
40 -3 23 4 -28 13 -264 31 -367 30 -45 -1 -129 -5 -189 -10z m-567 -164 c-26
-28 -33 -60 -18 -88 8 -16 7 -17 -9 -9 -10 6 -27 20 -37 31 -19 21 -19 22 4
46 13 14 28 25 32 25 5 0 16 7 25 15 26 26 28 7 3 -20z"/>
<path d="M858 1695 c-58 -32 -48 -82 28 -130 55 -36 69 -66 42 -93 -19 -19
-66 -15 -78 8 -15 27 -30 25 -30 -4 0 -19 7 -26 31 -31 43 -10 97 3 109 25 5
10 10 32 10 49 0 31 -18 49 -79 83 -49 27 -38 88 16 88 12 0 27 -9 33 -20 15
-27 30 -25 30 4 0 37 -61 48 -112 21z"/>
<path d="M1084 1696 c-60 -27 -82 -146 -39 -212 39 -59 121 -56 163 6 20 30
23 44 20 98 -3 50 -9 67 -28 87 -31 31 -76 39 -116 21z m81 -26 c20 -22 32
-111 21 -154 -14 -55 -67 -74 -102 -35 -27 30 -27 158 0 188 24 27 58 27 81 1z"/>
<path d="M1280 1699 c0 -4 7 -9 15 -13 12 -4 15 -26 15 -111 0 -85 -3 -107
-15 -111 -35 -14 -10 -20 72 -20 l87 1 4 38 c4 44 -11 49 -30 10 -10 -22 -21
-29 -51 -31 l-37 -3 0 110 c0 94 3 111 18 120 9 6 15 11 12 11 -30 5 -90 5
-90 -1z"/>
<path d="M1570 1653 c-12 -32 -33 -88 -47 -125 -14 -38 -29 -68 -34 -68 -5 0
-9 -3 -9 -8 0 -4 18 -7 40 -7 40 0 52 8 26 18 -11 4 -13 14 -7 34 7 25 12 28
53 31 45 3 46 2 53 -30 5 -21 4 -33 -4 -36 -25 -8 -8 -17 34 -18 l45 -2 -20
26 c-11 13 -20 29 -20 34 0 32 -63 208 -75 208 -7 0 -23 -26 -35 -57z m44 -37
c9 -30 16 -58 16 -63 0 -8 -70 -12 -70 -3 0 7 34 120 37 120 1 0 9 -24 17 -54z"/>
<path d="M1750 1698 c0 -4 5 -8 10 -8 6 0 10 -45 10 -115 0 -70 -4 -115 -10
-115 -5 0 -10 -4 -10 -8 0 -4 16 -8 35 -9 38 -1 43 4 20 21 -13 9 -15 30 -13
106 2 72 5 90 13 74 32 -66 121 -204 132 -204 10 0 13 30 13 125 0 77 4 125
10 125 6 0 10 3 10 8 0 4 -16 7 -35 7 -33 0 -47 -9 -26 -17 7 -2 21 -178 15
-178 -1 0 -27 42 -58 94 -48 80 -60 94 -86 98 -16 3 -30 1 -30 -4z"/>
<path d="M2020 1698 c0 -5 5 -8 10 -8 6 0 10 -45 10 -115 0 -70 -4 -115 -10
-115 -5 0 -10 -4 -10 -9 0 -5 18 -9 40 -9 22 0 40 3 40 9 0 5 -4 9 -10 9 -5 0
-10 25 -10 55 0 37 4 55 13 55 16 0 78 -96 72 -112 -4 -10 6 -14 35 -14 22 -1
40 2 40 7 0 5 -4 9 -9 9 -5 0 -31 30 -57 66 l-47 67 56 54 c32 30 57 55 57 56
0 6 -90 1 -90 -5 0 -5 5 -8 10 -8 21 0 8 -29 -32 -71 l-43 -44 -3 55 c-2 32 1
56 7 58 24 8 9 17 -29 17 -22 0 -40 -3 -40 -7z"/>
<path d="M2270 1698 c0 -5 5 -8 10 -8 6 0 10 -45 10 -115 0 -70 -4 -115 -10
-115 -5 0 -10 -4 -10 -8 0 -5 18 -9 40 -9 22 0 40 4 40 9 0 4 -4 8 -10 8 -6 0
-10 45 -10 115 0 70 4 115 10 115 6 0 10 3 10 8 0 4 -18 7 -40 7 -22 0 -40 -3
-40 -7z"/>
<path d="M1153 1393 c-19 -7 -16 -27 7 -48 22 -20 17 -43 -6 -24 -9 7 -14 8
-14 1 0 -16 16 -23 34 -16 22 8 20 23 -6 52 l-23 25 23 -6 c12 -3 22 -2 22 3
0 11 -22 18 -37 13z"/>
<path d="M1904 1385 c-18 -15 -18 -16 4 -35 13 -11 21 -24 17 -30 -5 -8 -12
-7 -23 2 -13 11 -14 11 -10 -2 7 -22 42 -19 46 4 2 10 -3 23 -12 28 -20 11
-21 32 -1 24 8 -3 15 -1 15 4 0 17 -17 19 -36 5z"/>
<path d="M1280 1380 c0 -5 7 -7 17 -3 14 5 15 1 10 -35 -3 -29 -1 -42 7 -42 7
0 10 15 8 45 -3 36 -8 45 -23 45 -10 0 -19 -4 -19 -10z"/>
<path d="M1335 1380 c3 -5 8 -10 11 -10 2 0 4 5 4 10 0 6 -5 10 -11 10 -5 0
-7 -4 -4 -10z"/>
<path d="M1440 1346 c0 -40 2 -43 27 -42 14 1 28 8 31 16 4 12 2 13 -9 3 -22
-21 -29 -15 -29 23 0 31 3 36 20 31 11 -3 20 -1 20 4 0 5 -13 9 -30 9 -29 0
-30 -2 -30 -44z"/>
<path d="M1595 1347 c0 -40 2 -43 28 -45 20 -2 27 2 27 15 0 13 -3 14 -12 5
-20 -20 -28 -14 -28 24 0 31 3 36 20 31 11 -3 20 -1 20 4 0 5 -12 9 -27 9 -26
0 -28 -3 -28 -43z"/>
<path d="M1750 1345 c0 -41 2 -45 24 -45 13 0 26 7 30 15 7 18 -5 20 -22 3 -9
-9 -12 -3 -12 30 0 23 -4 42 -10 42 -5 0 -10 -20 -10 -45z"/>
<path d="M1470 1350 c0 -5 5 -10 10 -10 6 0 10 5 10 10 0 6 -4 10 -10 10 -5 0
-10 -4 -10 -10z"/>
<path d="M1625 1350 c3 -5 8 -10 11 -10 2 0 4 5 4 10 0 6 -5 10 -11 10 -5 0
-7 -4 -4 -10z"/>
</g>
</svg>
