<?xml version="1.0" standalone="no"?>
<!DOCTYPE svg PUBLIC "-//W3C//DTD SVG 20010904//EN"
 "http://www.w3.org/TR/2001/REC-SVG-20010904/DTD/svg10.dtd">
<svg version="1.0" xmlns="http://www.w3.org/2000/svg"
 width="900.000000pt" height="348.000000pt" viewBox="0 0 900.000000 348.000000"
 preserveAspectRatio="xMidYMid meet">
<metadata>
Created by potrace 1.10, written by Peter Selinger 2001-2011
</metadata>
<g transform="translate(0.000000,348.000000) scale(0.100000,-0.100000)"
fill="#ffffff" stroke="none">
<path d="M4542 3073 c-30 -12 5 -23 73 -23 82 0 115 7 93 21 -14 9 -144 11
-166 2z"/>
<path d="M4875 3070 c-8 -12 20 -24 35 -15 6 3 8 11 5 16 -8 12 -32 12 -40 -1z"/>
<path d="M5326 3061 c-3 -4 -36 -11 -73 -14 -38 -3 -106 -10 -153 -16 -113
-15 -882 -9 -1107 8 -167 13 -255 9 -237 -9 5 -5 47 -13 94 -17 l85 -8 -105
-6 c-58 -4 -110 -3 -116 2 -5 4 -66 8 -135 8 -68 -1 -128 0 -134 1 -22 5 -35
-1 -35 -15 0 -8 6 -16 13 -16 6 -1 -10 -5 -38 -9 -69 -11 -203 -12 -207 -1 -4
10 -207 21 -213 11 -5 -8 68 -20 121 -20 46 0 51 -16 6 -24 -58 -9 -150 -7
-157 4 -3 6 -36 10 -73 9 -65 0 -66 -5 -7 -24 37 -12 -6 -25 -85 -25 -70 0
-79 2 -110 30 -38 32 -90 41 -90 15 0 -14 11 -19 36 -16 6 1 21 -10 33 -23
l23 -25 -36 -6 c-20 -4 -53 -4 -73 -1 -21 4 -58 9 -83 13 -44 5 -45 5 -27 -14
23 -27 13 -33 -51 -33 -38 0 -58 5 -66 16 -16 21 -49 7 -43 -18 5 -18 0 -19
-87 -14 -51 3 -100 8 -109 11 -8 4 -18 2 -22 -4 -7 -12 0 -15 49 -26 23 -5 27
-8 15 -16 -19 -12 -129 -12 -129 1 0 6 -9 10 -20 10 -24 0 -27 -18 -4 -27 25
-9 -2 -21 -68 -28 -32 -4 -61 -11 -64 -16 -3 -5 -24 -9 -47 -9 -23 0 -55 -7
-71 -15 -34 -18 -78 -19 -93 -4 -7 7 -32 14 -57 16 -36 3 -46 0 -46 -12 0 -11
11 -15 40 -15 56 0 54 -25 -2 -34 -33 -5 -45 -3 -54 9 -17 23 -25 18 -18 -10
6 -23 3 -25 -24 -25 -17 0 -34 5 -37 10 -12 19 -38 11 -32 -10 4 -16 -2 -22
-31 -30 -21 -5 -43 -10 -49 -10 -7 0 -13 -4 -13 -10 0 -5 -16 -10 -35 -10 -19
0 -35 4 -35 9 0 12 -29 22 -42 15 -6 -4 -1 -14 13 -25 26 -19 26 -18 -28 -35
-7 -2 -18 6 -24 17 -8 15 -14 18 -22 10 -7 -7 -7 -14 1 -24 16 -19 5 -27 -35
-27 -18 0 -33 -4 -33 -10 0 -5 -21 -20 -46 -32 -43 -20 -48 -20 -73 -5 -17 10
-32 13 -41 7 -12 -7 -12 -10 3 -16 23 -9 22 -34 -2 -34 -11 0 -26 -7 -35 -15
-17 -17 -46 -20 -46 -5 0 6 -7 10 -15 10 -18 0 -19 -12 -4 -27 13 -13 -57 -57
-77 -49 -8 3 -14 0 -14 -6 0 -12 -47 -58 -60 -58 -4 0 -10 6 -13 13 -2 6 -8 8
-13 4 -5 -4 -2 -12 6 -17 13 -8 13 -11 1 -22 -11 -10 -14 -10 -18 0 -3 6 -11
12 -18 12 -7 0 -15 9 -18 20 -7 26 -27 26 -27 0 0 -11 12 -27 26 -36 l25 -17
-24 -21 c-13 -12 -27 -30 -31 -41 -7 -19 -8 -19 -21 -1 -8 10 -18 15 -24 11
-16 -9 -13 -25 4 -25 8 0 15 -9 15 -20 0 -26 -16 -26 -30 0 -6 11 -15 18 -21
15 -14 -9 -11 -45 5 -51 10 -4 13 -24 11 -82 -2 -42 -7 -88 -11 -102 -5 -21
-4 -23 7 -13 17 16 39 17 39 1 0 -7 11 -24 25 -38 21 -22 23 -30 16 -58 -7
-24 -6 -32 4 -32 7 0 15 9 18 21 5 20 9 19 63 -20 31 -23 63 -41 70 -41 6 0
14 -7 18 -15 3 -8 15 -15 26 -15 12 0 28 -7 36 -15 9 -8 24 -15 34 -15 22 0
35 -16 20 -25 -17 -10 -11 -25 10 -25 11 0 20 5 20 10 0 6 9 10 20 10 22 0 28
-26 8 -33 -10 -4 -10 -7 0 -18 11 -12 16 -11 28 6 14 19 29 21 63 9 11 -4 12
-7 3 -16 -20 -20 -13 -31 15 -25 66 13 68 13 71 -11 3 -19 8 -23 25 -17 47 14
67 17 84 11 16 -7 15 -9 -7 -26 l-25 -20 32 0 c17 0 35 4 38 10 9 14 57 12 80
-4 11 -7 46 -16 77 -20 43 -6 58 -12 58 -23 0 -12 8 -15 40 -10 53 7 80 -1 80
-24 0 -25 37 -33 90 -19 54 14 106 5 120 -20 11 -21 60 -28 60 -10 0 6 8 10
18 10 16 -1 16 -1 0 -14 -10 -7 -18 -20 -18 -29 0 -26 -11 -47 -25 -47 -7 0
-20 -11 -29 -25 -10 -15 -26 -25 -41 -25 -13 0 -27 -5 -30 -10 -3 -6 -28 -10
-55 -10 -27 0 -52 5 -55 10 -3 6 -17 10 -31 10 -13 0 -32 10 -42 22 -9 12 -30
35 -45 51 -16 17 -34 46 -40 66 -12 35 -14 36 -65 39 -45 3 -54 7 -62 27 -10
27 -26 39 -35 26 -3 -5 2 -14 12 -20 17 -9 17 -10 0 -29 -12 -13 -15 -22 -8
-27 7 -4 11 -47 11 -110 0 -63 -4 -106 -11 -110 -16 -10 19 -44 39 -38 10 2
30 -2 46 -11 17 -8 42 -12 61 -9 21 3 46 -1 66 -11 45 -22 261 -23 279 -1 7 8
29 15 50 15 24 0 40 5 44 15 3 8 16 15 29 15 13 0 31 8 40 18 54 57 75 84 96
124 l25 46 55 -5 c31 -3 60 -12 64 -19 4 -8 17 -14 27 -14 10 0 22 -4 25 -10
10 -16 42 -12 49 6 11 28 7 32 -41 39 -27 4 -56 15 -66 26 -10 10 -26 19 -37
19 -10 0 -21 9 -25 19 -3 11 -16 21 -28 23 -20 3 -22 9 -23 75 -2 72 -23 133
-59 169 -7 8 -22 24 -32 37 -20 26 -135 107 -151 107 -6 0 -41 20 -78 45 -36
25 -74 45 -83 45 -16 0 -71 54 -71 70 0 5 4 12 10 15 15 9 12 35 -5 35 -7 0
-18 -7 -23 -16 -11 -20 -32 -10 -32 15 0 10 -7 24 -15 31 -19 16 -19 74 0 90
8 7 15 21 15 31 0 10 13 26 29 35 16 10 32 26 34 36 4 15 15 18 79 17 96 -1
128 -8 128 -25 0 -8 4 -14 9 -14 5 0 23 -14 40 -31 30 -30 41 -72 21 -84 -6
-3 -10 -17 -10 -31 0 -18 5 -24 23 -24 13 0 29 6 36 12 6 7 34 13 61 13 26 0
51 2 54 6 8 8 17 210 10 242 -3 16 -12 27 -23 27 -9 0 -27 8 -40 17 -21 14
-54 17 -221 17 -169 0 -199 -2 -220 -17 -14 -9 -33 -17 -43 -17 -9 0 -20 -7
-23 -15 -4 -8 -13 -15 -21 -15 -44 0 -133 -120 -133 -180 0 -21 -7 -45 -15
-54 -17 -17 -20 -62 -5 -71 5 -3 10 -23 10 -44 0 -23 8 -48 20 -64 11 -14 20
-30 20 -36 0 -6 3 -11 8 -11 4 0 16 -14 27 -30 11 -16 26 -30 33 -30 6 0 12
-4 12 -9 0 -9 63 -53 125 -87 134 -72 164 -89 200 -115 47 -34 70 -68 79 -122
9 -47 -15 -61 -47 -28 -21 21 -21 23 -3 36 10 8 15 19 11 25 -5 8 -17 1 -37
-20 -27 -30 -32 -32 -61 -23 l-32 10 34 15 34 16 -49 6 c-28 4 -61 3 -77 -3
-40 -16 -47 -14 -44 12 2 24 -9 26 -71 12 -30 -7 -32 -6 -30 16 2 17 -1 23
-12 20 -8 -2 -33 -6 -55 -9 -36 -4 -38 -3 -25 13 12 15 11 19 -10 36 -29 22
-71 24 -101 7 -17 -11 -22 -10 -30 5 -6 9 -19 17 -29 17 -10 0 -22 5 -25 11
-4 5 -17 14 -28 20 -38 16 -60 32 -125 96 -50 47 -63 67 -59 82 4 16 0 21 -13
21 -24 0 -30 31 -23 118 4 48 11 76 20 79 7 3 13 13 13 22 0 18 88 129 104
130 4 1 26 19 48 41 22 22 48 40 58 40 10 0 21 7 24 16 4 11 14 15 31 12 17
-4 25 -1 25 9 0 7 10 18 22 24 13 5 41 21 63 34 42 24 85 32 85 15 0 -5 10
-10 23 -9 l22 0 -23 11 c-45 22 -10 49 39 31 16 -7 29 -7 29 -2 0 5 -4 9 -10
9 -5 0 -10 4 -10 9 0 16 28 20 59 8 31 -11 56 -2 32 12 -20 12 -6 27 30 35 25
5 37 2 50 -13 12 -13 26 -17 41 -13 21 5 20 7 -12 20 -33 13 -34 15 -15 28 10
8 29 14 41 14 13 0 26 5 29 10 9 14 38 12 71 -5 16 -8 37 -15 47 -15 24 0 21
27 -4 33 -12 3 -18 10 -14 16 8 13 75 15 75 2 0 -15 41 -24 52 -13 7 7 3 14
-11 22 -30 16 -19 26 36 34 26 3 61 11 79 18 26 9 38 8 68 -6 39 -18 67 -18
73 0 2 6 -10 14 -27 18 -47 9 -26 26 32 26 34 0 54 -5 62 -16 9 -11 18 -13 36
-6 l24 9 -22 12 c-30 16 -19 31 23 31 19 0 54 6 77 14 24 8 65 17 92 21 41 6
51 4 67 -14 21 -23 44 -27 54 -11 3 5 -5 15 -19 21 -14 7 -23 16 -20 20 7 12
98 11 110 -1 15 -15 106 -17 111 -2 3 8 -5 12 -24 12 -15 0 -34 4 -42 9 -23
15 55 26 85 12 20 -9 31 -8 54 4 39 20 47 19 54 -7 4 -18 8 -20 17 -11 9 9 9
15 0 27 -20 24 52 29 157 11 52 -9 101 -14 109 -11 24 10 4 26 -32 26 -19 0
-36 4 -40 9 -8 14 71 23 154 18 62 -4 78 -8 101 -31 35 -32 50 -17 20 21 -28
36 -15 43 96 43 69 0 95 -4 104 -15 13 -16 61 -18 115 -6 29 7 30 7 8 19 -12
7 -30 13 -40 13 -36 3 104 17 183 18 54 1 85 -3 92 -11 7 -9 45 -13 129 -11
164 2 165 2 158 13 -3 6 -34 10 -68 11 -96 1 -118 17 -27 20 129 3 311 1 415
-6 55 -3 138 -6 185 -6 47 0 126 0 175 0 50 0 170 0 268 0 168 -1 177 -2 177
-20 0 -10 7 -19 15 -19 8 0 15 9 15 19 0 27 19 31 148 30 81 -1 104 -4 75 -8
-48 -8 -58 -15 -48 -30 9 -16 228 -14 243 1 10 10 17 10 31 1 15 -10 22 -9 31
2 13 16 100 21 100 7 0 -5 -16 -13 -36 -18 -19 -5 -36 -13 -37 -19 -3 -17 59
-17 73 -1 16 21 84 21 100 1 16 -19 98 -20 125 -1 22 15 85 10 85 -6 0 -7 -15
-8 -40 -4 -36 6 -40 4 -40 -14 0 -17 7 -20 40 -20 22 0 40 5 40 10 0 6 6 10
14 10 7 0 19 6 25 13 8 11 5 19 -16 36 -21 19 -33 22 -67 18 -45 -7 -59 -1
-69 26 -6 15 -10 16 -28 6 -13 -6 -38 -9 -62 -5 -30 5 -44 3 -58 -10 -21 -19
-40 -11 -21 8 7 7 12 18 12 25 0 17 -142 18 -168 2 -26 -16 -128 -2 -150 20
-15 16 -33 18 -147 15 -71 -1 -152 -5 -180 -8 -50 -5 -50 -5 -12 6 52 16 49
38 -7 38 -25 0 -48 5 -51 10 -8 12 -22 13 -29 1z m-4006 -582 c-14 -10 -36
-28 -48 -39 -13 -11 -29 -20 -36 -20 -7 0 -30 -15 -52 -33 -21 -18 -64 -49
-95 -70 -59 -38 -111 -100 -165 -195 -59 -104 -52 -239 18 -346 21 -32 37 -61
34 -63 -7 -7 -121 33 -166 58 -8 4 -35 18 -60 31 -53 26 -126 91 -146 129 -8
16 -14 57 -14 97 0 68 0 69 47 117 27 27 68 65 92 83 48 37 291 162 316 162 8
0 31 11 51 25 20 14 46 25 58 25 12 0 30 7 40 15 11 8 29 15 40 15 12 0 30 7
40 15 11 8 31 15 45 15 l26 -1 -25 -20z m634 -134 c15 -8 37 -15 47 -15 17 0
19 -9 21 -85 1 -47 2 -93 2 -102 1 -28 -78 -26 -82 2 -6 37 -37 89 -72 122
l-35 33 -116 0 c-91 0 -119 -3 -129 -15 -7 -8 -18 -15 -24 -15 -13 -1 -40 -37
-50 -67 -4 -13 -12 -23 -17 -23 -5 0 -9 -34 -9 -75 0 -42 4 -75 10 -75 5 0 13
-12 16 -27 8 -32 88 -111 127 -125 15 -6 27 -14 27 -19 0 -5 9 -9 19 -9 11 0
26 -6 33 -13 7 -7 36 -24 63 -38 28 -13 55 -28 62 -34 7 -5 33 -26 58 -45 26
-19 63 -57 83 -85 l37 -49 3 -122 c3 -100 1 -124 -12 -137 -9 -8 -16 -20 -16
-25 0 -17 -101 -112 -119 -112 -10 0 -24 -7 -31 -15 -8 -9 -30 -15 -60 -15
-30 0 -52 -6 -60 -15 -9 -10 -32 -15 -75 -15 -43 0 -66 5 -75 15 -9 10 -31 15
-72 15 -33 0 -74 6 -91 14 -18 8 -41 16 -52 18 -18 3 -20 12 -23 106 l-3 102
46 0 c41 0 45 -2 45 -24 0 -54 77 -149 129 -161 17 -4 33 -11 36 -16 10 -15
138 -10 159 6 11 8 28 15 38 15 23 0 88 66 88 89 0 10 7 24 15 31 10 9 15 32
15 75 0 43 -5 66 -15 75 -8 7 -15 21 -15 31 0 30 -37 82 -77 109 -21 14 -40
27 -43 30 -9 10 -103 64 -155 90 -27 13 -56 30 -63 37 -7 7 -18 13 -24 13 -15
0 -118 102 -118 117 0 8 -7 21 -15 29 -11 12 -15 40 -15 118 0 80 3 106 15
116 8 7 15 18 15 26 0 24 71 88 133 120 62 31 62 32 227 33 129 1 171 -2 194
-14z m-599 -756 c-8 -12 -32 -12 -40 1 -11 18 5 31 26 20 11 -6 17 -15 14 -21z"/>
<path d="M3298 2998 c9 -9 15 -9 24 0 9 9 7 12 -12 12 -19 0 -21 -3 -12 -12z"/>
<path d="M4365 2920 c-8 -13 38 -24 66 -15 17 6 19 9 8 16 -19 12 -66 11 -74
-1z"/>
<path d="M4547 2893 c-13 -12 -7 -23 13 -23 11 0 20 7 20 15 0 15 -21 21 -33
8z"/>
<path d="M1821 2788 c-14 -35 4 -42 32 -14 26 26 25 36 -5 36 -10 0 -23 -10
-27 -22z"/>
<path d="M1675 2740 c-3 -6 1 -13 10 -16 19 -8 30 0 20 15 -8 14 -22 14 -30 1z"/>
<path d="M2453 2708 c2 -7 10 -13 17 -13 7 0 15 6 18 13 2 7 -5 12 -18 12 -13
0 -20 -5 -17 -12z"/>
<path d="M2560 2710 c-12 -8 -12 -10 2 -15 20 -8 41 2 33 16 -8 11 -16 11 -35
-1z"/>
<path d="M2690 2676 c0 -20 12 -26 38 -19 33 8 27 33 -8 33 -19 0 -30 -5 -30
-14z"/>
<path d="M1286 2623 c-11 -11 -6 -23 9 -23 8 0 15 4 15 9 0 13 -16 22 -24 14z"/>
<path d="M1760 2535 c0 -8 7 -15 16 -15 14 0 14 3 4 15 -7 8 -14 15 -16 15 -2
0 -4 -7 -4 -15z"/>
<path d="M1015 2531 c-3 -5 -1 -12 5 -16 12 -7 30 2 30 16 0 12 -27 12 -35 0z"/>
<path d="M5124 2476 c-8 -21 3 -49 16 -41 5 3 10 15 10 25 0 25 -18 36 -26 16z"/>
<path d="M2007 2473 c-12 -11 -8 -23 8 -23 8 0 15 7 15 15 0 16 -12 20 -23 8z"/>
<path d="M3890 2465 c0 -8 7 -15 15 -15 8 0 15 7 15 15 0 8 -7 15 -15 15 -8 0
-15 -7 -15 -15z"/>
<path d="M6920 2465 c0 -10 10 -15 30 -15 20 0 30 5 30 15 0 10 -10 15 -30 15
-20 0 -30 -5 -30 -15z"/>
<path d="M8212 2468 c6 -18 28 -21 28 -4 0 9 -7 16 -16 16 -9 0 -14 -5 -12
-12z"/>
<path d="M6854 2446 c-10 -26 1 -51 21 -51 23 0 32 30 15 50 -16 19 -29 19
-36 1z"/>
<path d="M4910 2415 c0 -7 7 -18 17 -23 21 -12 10 -42 -15 -42 -15 0 -18 -6
-14 -30 2 -17 0 -36 -6 -43 -5 -6 -13 -29 -16 -50 -6 -31 -11 -38 -25 -34 -16
4 -17 -1 -13 -42 3 -35 0 -50 -12 -60 -9 -7 -16 -22 -16 -32 0 -10 -4 -21 -10
-24 -5 -3 -10 -15 -10 -27 0 -11 -6 -32 -14 -46 -8 -15 -17 -39 -20 -54 -3
-15 -15 -30 -26 -33 -16 -5 -18 -10 -9 -26 11 -21 4 -59 -11 -59 -5 0 -12 -14
-15 -32 -4 -17 -16 -39 -28 -48 -17 -14 -18 -20 -8 -38 10 -18 9 -23 -3 -28
-7 -3 -17 -25 -21 -50 -3 -24 -10 -44 -15 -44 -4 0 -11 -18 -15 -39 -4 -22
-12 -42 -19 -44 -7 -3 -18 -31 -26 -63 -7 -33 -22 -74 -33 -93 -18 -30 -22
-32 -32 -17 -13 18 -40 21 -50 7 -3 -5 4 -16 15 -24 25 -18 17 -45 -16 -53
-29 -8 -40 -21 -49 -62 l-7 -32 224 2 223 3 13 28 c7 15 20 27 28 27 7 0 14 7
14 15 0 21 -27 19 -39 -2 -10 -17 -12 -16 -28 4 -10 12 -31 25 -48 29 -40 9
-45 19 -45 89 0 43 6 68 20 90 11 17 17 38 14 47 -3 10 4 26 15 37 20 20 33
21 205 21 202 0 196 2 196 -64 0 -18 5 -37 11 -43 13 -13 23 -126 15 -159 -4
-16 -16 -23 -45 -28 -47 -7 -57 -18 -64 -78 -5 -37 -3 -48 7 -48 8 0 16 7 20
15 4 13 38 15 219 15 195 0 215 2 230 18 10 10 17 22 17 26 0 15 -36 45 -62
51 -28 7 -62 54 -74 100 -3 14 -10 25 -15 25 -5 0 -9 17 -9 38 0 21 -6 46 -14
57 -7 11 -16 40 -20 64 -4 24 -13 53 -21 64 -8 12 -15 36 -15 53 0 17 -6 37
-14 43 -8 7 -14 25 -14 41 1 16 -7 36 -16 46 -11 10 -15 25 -12 38 3 12 -1 34
-9 50 -8 16 -15 36 -15 45 0 9 -7 28 -14 43 -8 16 -18 48 -21 73 -4 24 -13 50
-21 56 -8 6 -14 26 -14 45 0 18 -4 36 -10 39 -5 3 -10 19 -10 36 0 16 -9 46
-20 66 -11 21 -20 50 -20 65 0 16 -4 28 -9 28 -5 0 -12 11 -15 24 -7 28 -58
66 -64 48 -6 -19 -111 -15 -118 3 -8 19 -34 20 -34 0z m184 -80 c9 -14 19 -40
23 -58 3 -17 9 -36 13 -42 4 -5 10 -29 13 -53 3 -24 12 -51 21 -61 9 -10 16
-34 16 -54 0 -20 5 -37 10 -37 6 0 10 -15 10 -33 0 -18 9 -49 20 -70 11 -20
20 -48 20 -61 0 -14 4 -27 9 -30 4 -3 11 -26 13 -50 3 -25 13 -52 22 -61 9 -9
16 -29 16 -45 0 -15 7 -41 15 -56 8 -16 15 -39 15 -52 0 -12 7 -34 16 -47 9
-13 13 -29 9 -35 -3 -5 1 -24 9 -42 9 -17 16 -43 16 -58 0 -15 9 -39 20 -53
11 -14 20 -32 20 -41 0 -37 57 -103 92 -108 13 -2 23 -7 23 -13 0 -6 -73 -11
-193 -13 -153 -2 -193 0 -190 10 3 7 15 15 29 16 13 2 34 13 47 25 21 20 23
30 21 107 -1 55 -6 93 -16 108 -8 13 -16 42 -19 65 -8 67 -16 70 -241 68 -191
-2 -199 -3 -219 -24 -11 -12 -23 -40 -27 -61 -3 -22 -11 -42 -17 -46 -7 -4
-12 -45 -14 -99 -2 -84 0 -94 20 -117 13 -13 32 -24 43 -24 23 0 38 -19 23
-29 -17 -10 -332 -1 -332 10 0 5 8 13 18 16 27 11 79 68 86 97 3 14 11 26 16
26 6 0 10 8 10 18 0 10 7 27 15 38 8 10 15 31 15 46 0 15 7 33 15 42 8 8 15
23 15 33 0 11 7 28 15 39 8 10 15 31 15 45 0 15 7 32 15 39 8 7 15 22 15 34 0
12 7 31 15 42 8 10 15 29 15 41 0 12 7 28 15 37 8 8 15 25 15 38 0 13 7 33 15
44 8 10 15 26 15 34 0 8 7 28 15 44 8 15 15 36 15 45 0 10 7 26 15 37 8 10 15
28 15 40 0 11 7 29 15 40 8 10 15 31 15 45 0 15 7 32 15 39 8 7 15 22 15 34 0
12 7 31 15 42 8 10 15 30 15 43 0 42 37 71 91 71 39 0 49 -4 63 -25z"/>
<path d="M4977 2203 c-4 -3 -7 -21 -7 -40 0 -21 -6 -36 -15 -39 -10 -4 -15
-20 -15 -44 0 -24 -5 -40 -15 -44 -8 -3 -15 -16 -15 -29 0 -13 -7 -32 -15 -43
-8 -10 -15 -31 -15 -45 0 -15 -7 -32 -15 -39 -8 -7 -15 -27 -15 -45 0 -18 -7
-38 -15 -45 -8 -7 -15 -27 -15 -46 0 -20 -6 -37 -16 -42 -11 -6 -14 -20 -12
-48 l3 -39 190 0 c185 0 190 1 193 21 2 11 -4 27 -13 34 -8 7 -15 27 -15 45 0
18 -7 46 -15 61 -8 16 -15 39 -15 52 0 12 -7 33 -15 46 -9 13 -14 37 -13 54 1
18 -5 39 -15 50 -9 10 -17 33 -17 51 0 18 -7 39 -15 47 -8 9 -15 32 -15 53 0
26 -7 44 -23 59 -13 12 -27 19 -30 15z m21 -114 c2 -13 8 -28 13 -33 5 -6 9
-27 9 -48 0 -23 6 -40 16 -46 10 -5 17 -27 20 -57 3 -27 9 -55 15 -62 6 -7 12
-37 13 -67 1 -35 8 -62 19 -74 9 -10 17 -28 17 -40 0 -22 -3 -22 -145 -22
-132 0 -145 2 -145 18 0 9 7 26 15 36 8 11 13 27 10 37 -3 9 1 22 10 29 8 7
15 20 15 29 0 9 6 28 14 43 8 14 17 45 21 67 4 23 11 41 16 41 5 0 9 9 9 20 0
12 7 35 16 52 9 17 16 49 16 70 -1 43 21 49 26 7z"/>
<path d="M5940 2416 c0 -22 -31 -27 -141 -24 -95 2 -102 1 -120 -21 -17 -21
-17 -24 -2 -47 8 -13 25 -27 37 -30 12 -3 31 -19 43 -37 22 -32 22 -34 22
-512 0 -474 -1 -480 -21 -502 -12 -13 -29 -23 -39 -23 -26 0 -52 -46 -39 -70
10 -20 19 -20 197 -18 174 3 186 4 199 23 12 19 10 23 -23 50 -21 16 -47 28
-60 27 -15 -1 -26 5 -29 16 -3 9 -9 24 -14 33 -6 12 -17 714 -11 769 1 11 7 8
21 -10 11 -14 17 -32 15 -41 -3 -9 12 -34 35 -59 23 -25 40 -53 40 -67 0 -12
10 -33 23 -45 28 -28 67 -86 67 -98 0 -6 4 -10 9 -10 5 0 12 -13 16 -30 4 -16
10 -30 14 -30 4 0 17 -19 30 -42 12 -24 31 -56 41 -73 11 -16 25 -41 32 -55 7
-14 16 -27 20 -30 4 -3 12 -17 17 -30 13 -29 31 -59 49 -78 6 -7 12 -18 12
-23 0 -6 7 -17 15 -25 8 -9 15 -23 15 -33 0 -10 11 -30 24 -44 14 -15 27 -36
31 -47 3 -11 11 -20 16 -20 5 0 9 -7 9 -15 0 -8 -4 -15 -10 -15 -5 0 -10 -6
-10 -14 0 -11 16 -13 83 -9 45 3 86 10 92 15 6 5 10 212 11 552 l0 543 24 33
c13 18 37 38 54 45 17 7 39 22 49 33 17 19 17 20 -9 41 -25 19 -39 21 -194 21
l-167 0 -7 -41 c-7 -46 -2 -59 23 -59 10 0 28 -12 42 -26 l24 -26 0 -321 c0
-206 -4 -323 -10 -325 -5 -1 -18 11 -27 29 -9 17 -23 38 -32 48 -9 10 -16 23
-16 29 0 7 -4 12 -10 12 -5 0 -10 9 -10 20 0 11 -7 23 -15 26 -8 4 -15 12 -15
19 0 7 7 18 15 25 19 16 20 50 0 50 -7 0 -18 -7 -23 -16 -10 -19 -32 -11 -32
12 0 8 -4 14 -10 14 -5 0 -10 5 -10 11 0 6 -21 48 -48 93 -26 44 -56 97 -67
116 -10 19 -21 37 -25 40 -18 15 -73 118 -77 146 -3 21 -13 36 -24 39 -11 4
-24 16 -30 28 -18 34 -70 97 -80 97 -5 0 -9 -6 -9 -14z m24 -62 c9 -3 16 -12
16 -19 0 -8 6 -20 13 -27 7 -7 23 -33 36 -58 13 -25 26 -47 30 -50 3 -3 12
-16 19 -30 7 -14 21 -38 32 -55 11 -16 23 -38 26 -47 4 -10 10 -18 15 -18 5 0
9 -6 9 -14 0 -8 6 -21 13 -28 11 -12 29 -42 74 -130 7 -14 20 -29 28 -32 8 -3
15 -14 15 -25 0 -11 4 -22 9 -26 6 -3 20 -26 32 -50 12 -25 26 -45 30 -45 4 0
12 -12 18 -27 17 -44 63 -117 77 -126 8 -4 14 -17 14 -28 0 -11 7 -27 15 -35
8 -9 15 -24 15 -35 0 -10 7 -19 15 -19 21 0 27 788 6 838 -7 17 -17 32 -21 32
-4 0 -20 11 -35 25 -23 19 -26 25 -14 30 26 10 284 1 282 -10 -1 -5 -11 -12
-23 -15 -39 -9 -90 -69 -92 -109 -1 -20 -2 -265 -2 -546 l-1 -510 -42 -3 c-40
-3 -44 -1 -68 38 -14 23 -29 49 -33 58 -6 16 -14 27 -38 55 -6 7 -14 25 -18
40 -3 15 -11 27 -16 27 -6 0 -10 6 -10 13 0 8 -9 24 -20 37 -11 13 -20 27 -20
32 0 5 -11 24 -25 42 -14 18 -25 38 -25 44 0 6 -6 17 -13 24 -7 7 -24 34 -37
61 -13 26 -27 47 -32 47 -4 0 -8 8 -8 18 0 10 -9 25 -20 35 -11 9 -20 24 -20
32 0 9 -11 28 -25 43 -14 15 -25 32 -25 38 0 6 -9 21 -20 34 -11 13 -20 31
-20 40 0 10 -6 20 -13 23 -7 2 -21 22 -32 43 -11 22 -26 43 -32 47 -7 4 -13
19 -13 31 0 13 -7 26 -15 30 -8 3 -15 15 -15 27 0 21 -39 61 -52 52 -5 -2 -8
-199 -8 -438 0 -401 1 -437 19 -477 21 -50 36 -65 71 -70 14 -1 24 -7 23 -13
-2 -6 -58 -10 -143 -10 -86 0 -140 4 -140 10 -1 6 8 11 18 13 11 2 29 14 41
26 l22 24 0 508 c0 280 0 514 -1 521 0 6 -20 26 -45 44 -25 18 -45 36 -45 41
0 9 220 11 244 2z"/>
<path d="M8168 2418 c-32 -26 -32 -118 1 -118 9 0 29 -11 44 -25 l27 -26 0
-492 c0 -379 -3 -497 -13 -510 -6 -10 -26 -21 -42 -25 -27 -7 -30 -13 -33 -50
l-3 -42 190 0 c104 0 196 -3 205 -6 23 -9 40 34 27 68 -7 18 -19 27 -43 32
-32 6 -35 10 -44 59 -5 29 -9 250 -9 509 0 455 0 457 22 477 12 11 33 23 48
27 32 8 41 27 29 63 -8 23 -17 27 -69 33 -33 4 -64 7 -70 7 -5 -1 -56 -3 -113
-6 -98 -4 -104 -3 -109 16 -6 24 -22 27 -45 9z m360 -63 c17 -6 5 -25 -16 -25
-23 -1 -53 -29 -74 -69 -16 -30 -18 -74 -18 -500 0 -442 1 -469 19 -507 23
-48 37 -61 71 -66 14 -1 24 -7 23 -13 -2 -6 -68 -10 -173 -10 -105 0 -171 4
-172 10 -2 6 7 11 20 13 13 2 33 13 45 25 22 22 22 25 25 507 2 267 0 504 -3
527 -5 36 -12 45 -51 68 -41 24 -50 35 -40 46 6 5 327 0 344 -6z"/>
<path d="M690 2410 c0 -5 9 -10 20 -10 11 0 20 5 20 10 0 6 -9 10 -20 10 -11
0 -20 -4 -20 -10z"/>
<path d="M2670 2393 c-25 -2 -59 -10 -77 -18 -17 -8 -34 -15 -39 -15 -21 0
-174 -131 -174 -148 0 -7 -9 -12 -19 -12 -13 0 -18 -5 -14 -18 2 -10 -3 -31
-11 -47 -9 -17 -16 -36 -16 -43 0 -7 -7 -20 -15 -29 -9 -8 -13 -23 -10 -32 2
-9 -3 -29 -12 -46 -14 -25 -17 -65 -20 -243 -2 -196 -1 -215 17 -245 11 -18
20 -41 20 -51 0 -11 8 -28 17 -38 14 -16 15 -23 5 -39 -11 -17 -9 -21 14 -29
25 -10 26 -12 10 -29 -9 -9 -16 -20 -16 -24 0 -14 33 -37 54 -37 13 0 31 -12
44 -30 13 -16 29 -30 37 -30 7 0 20 -6 27 -12 24 -22 79 -48 102 -48 12 0 31
-7 42 -15 27 -20 201 -21 240 0 16 8 38 15 50 15 24 0 123 51 172 88 26 20 35
23 42 13 4 -8 13 -10 20 -6 10 6 9 11 -5 21 -18 13 -18 14 0 34 19 21 33 44
61 100 10 19 24 43 32 52 9 11 15 44 16 92 1 47 7 80 16 91 22 27 20 297 -2
322 -12 13 -15 29 -11 60 4 32 0 52 -16 83 -11 22 -21 47 -21 55 0 8 -4 15
-10 15 -5 0 -10 11 -10 25 0 14 -6 28 -14 31 -8 3 -26 23 -41 45 -14 22 -37
45 -50 51 -15 7 -25 20 -25 32 -1 24 -45 62 -55 46 -8 -13 -52 -13 -57 1 -4
11 -211 20 -298 12z m278 -50 c2 -7 11 -13 20 -13 45 0 201 -141 202 -182 0
-7 7 -22 15 -32 8 -11 15 -28 15 -38 0 -10 4 -18 9 -18 4 0 11 -34 15 -76 3
-43 11 -84 18 -92 19 -22 19 -241 0 -251 -9 -5 -14 -29 -15 -76 -1 -45 -6 -70
-15 -73 -6 -2 -12 -14 -12 -28 0 -55 -137 -243 -177 -244 -7 0 -13 -4 -13 -10
0 -5 -12 -13 -27 -16 -16 -4 -37 -13 -48 -20 -11 -8 -38 -14 -61 -14 -25 0
-47 -6 -54 -15 -17 -20 -103 -20 -120 0 -7 9 -29 15 -54 15 -23 0 -51 7 -62
15 -10 8 -27 15 -36 15 -20 0 -158 130 -158 148 0 7 -4 12 -10 12 -5 0 -12 17
-16 37 -4 21 -13 44 -21 51 -7 7 -13 30 -13 51 0 20 -5 42 -11 48 -19 19 -14
381 5 419 9 16 13 37 10 47 -3 9 4 33 16 52 12 19 19 35 16 35 -3 0 4 19 16
41 29 56 134 161 183 184 22 10 51 24 65 32 34 18 311 14 318 -4z"/>
<path d="M2650 2285 c-7 -8 -18 -15 -24 -15 -15 0 -86 -72 -86 -87 0 -6 -7
-16 -15 -23 -8 -7 -15 -23 -15 -35 0 -12 -6 -28 -14 -34 -8 -7 -17 -43 -21
-86 -4 -41 -11 -77 -16 -81 -15 -9 -11 -74 4 -74 31 0 47 36 51 115 3 43 10
83 16 89 5 5 10 18 10 28 0 44 74 135 137 170 23 12 54 18 100 18 72 0 86 -5
96 -32 3 -10 14 -18 24 -18 25 -1 53 -24 53 -43 0 -9 9 -21 20 -27 11 -6 20
-21 20 -35 0 -13 4 -26 9 -29 5 -4 12 -25 16 -49 4 -23 12 -48 19 -56 15 -19
15 -462 0 -482 -6 -8 -14 -30 -18 -50 -4 -21 -13 -43 -22 -50 -8 -7 -12 -19
-9 -27 6 -15 -55 -82 -74 -82 -6 0 -10 10 -8 22 1 14 -4 23 -15 26 -24 5 -24
-35 -1 -60 15 -17 14 -18 -16 -24 -17 -4 -34 -11 -37 -15 -10 -16 -89 -9 -131
11 -57 27 -137 104 -130 124 4 10 -1 20 -13 26 -14 7 -20 21 -20 43 0 18 -5
38 -12 45 -6 6 -13 44 -14 83 -3 74 -14 99 -45 99 -14 0 -19 -7 -19 -29 0 -16
5 -31 11 -33 7 -2 12 -32 14 -71 1 -36 7 -72 13 -79 5 -7 13 -30 17 -50 4 -21
11 -38 15 -38 4 0 13 -12 18 -27 13 -36 59 -85 97 -104 17 -9 45 -23 63 -32
41 -21 130 -22 156 -2 11 8 28 15 37 15 42 0 169 164 169 219 0 9 5 22 11 28
17 17 24 211 16 428 -2 81 -8 117 -20 136 -9 14 -14 28 -11 31 14 15 -54 127
-109 180 l-60 58 -112 0 c-88 0 -115 -3 -125 -15z"/>
<path d="M2449 1818 c-8 -88 -4 -118 16 -118 16 0 22 21 21 70 -2 38 -11 60
-27 60 -5 0 -10 -6 -10 -12z"/>
<path d="M3489 2367 c-22 -29 -7 -52 53 -82 l43 -22 0 -500 c0 -479 -1 -502
-19 -522 -17 -19 -21 -20 -36 -6 -23 21 -30 19 -30 -10 0 -13 -7 -28 -15 -32
-10 -6 -13 -19 -8 -45 5 -32 8 -36 24 -28 10 6 184 10 432 10 l414 0 -1 73
c-1 39 1 128 4 197 l4 124 -69 0 -70 0 -1 -43 c0 -23 -6 -46 -13 -50 -7 -4
-13 -23 -13 -42 -1 -19 -11 -47 -22 -64 -12 -16 -22 -32 -23 -34 -1 -2 -9 1
-16 7 -18 15 -30 3 -15 -15 6 -7 8 -17 4 -21 -4 -4 -76 -7 -159 -7 l-152 0 2
25 c1 14 2 231 3 484 1 453 1 458 23 492 15 23 32 36 55 40 28 5 32 10 32 38
0 54 -6 56 -219 56 -192 -1 -196 -1 -212 -23z m399 -19 c-3 -7 -13 -15 -24
-18 -30 -8 -74 -41 -74 -55 0 -7 -6 -15 -12 -17 -16 -6 -23 -670 -11 -898 l8
-145 175 2 175 1 47 51 c34 37 48 62 53 93 4 24 11 48 15 53 5 6 10 24 12 40
2 24 8 30 28 30 l25 0 1 -145 c1 -80 -1 -153 -3 -162 -4 -17 -31 -18 -390 -18
-299 0 -384 3 -381 12 3 7 13 15 24 18 11 3 30 12 42 21 l23 16 0 519 c0 286
-1 524 -1 531 0 6 -20 23 -45 38 -25 14 -43 30 -40 36 10 15 358 12 353 -3z"/>
<path d="M6948 2372 c-16 -9 -28 -20 -28 -25 0 -13 43 -46 61 -47 19 0 61 -46
78 -84 9 -22 11 -140 10 -475 -2 -421 -3 -448 -21 -483 -18 -35 -24 -38 -62
-38 -46 0 -66 -13 -66 -43 0 -42 24 -46 243 -47 l207 0 0 45 c0 43 -1 45 -45
64 l-45 20 0 227 0 227 42 -7 c56 -9 58 -11 51 -53 -6 -34 -5 -36 18 -30 21 5
29 -3 64 -56 22 -34 42 -64 45 -67 18 -17 70 -103 70 -115 0 -8 9 -19 19 -25
11 -5 24 -25 31 -44 6 -19 17 -37 25 -40 24 -9 17 -36 -15 -66 -30 -28 -39
-63 -20 -75 6 -4 101 -6 212 -5 192 1 202 0 224 -21 15 -14 29 -19 44 -14 27
8 21 28 -11 35 -17 5 -23 12 -22 28 3 25 -24 57 -59 67 -31 10 -68 35 -68 46
0 5 9 9 20 9 13 0 20 7 20 20 0 24 -25 27 -38 4 -7 -13 -13 -11 -40 16 -18 17
-32 37 -32 44 0 6 -8 19 -17 27 -10 9 -25 26 -33 39 -8 12 -20 28 -26 34 -6 7
-14 21 -18 33 -4 12 -13 24 -21 27 -8 3 -15 13 -15 21 0 16 -38 72 -72 107
-10 10 -18 24 -18 32 0 8 -3 16 -7 18 -5 2 -25 28 -46 60 -28 40 -37 62 -32
77 8 26 16 26 43 1 23 -21 42 -26 42 -10 0 5 -6 13 -14 17 -28 17 -29 51 0 78
15 14 33 25 42 25 9 0 12 6 8 17 -5 11 4 26 24 45 35 31 41 33 57 17 7 -7 19
-9 27 -6 20 8 21 37 1 37 -33 0 -14 34 78 133 35 38 38 39 50 23 10 -13 20
-16 36 -11 18 5 22 12 18 33 -8 43 8 62 53 62 34 0 41 4 46 25 4 14 5 27 3 28
-67 37 -69 37 -265 37 -164 0 -196 -2 -200 -15 -4 -10 -20 -15 -45 -15 -44 0
-55 -24 -16 -35 12 -3 31 -10 42 -14 11 -5 32 -13 47 -19 35 -14 47 -56 24
-81 -9 -10 -16 -22 -16 -27 0 -11 -16 -34 -70 -98 -19 -23 -42 -53 -51 -66
-16 -24 -17 -24 -37 -7 -12 11 -22 14 -26 8 -4 -5 -2 -13 4 -16 26 -16 -32
-97 -100 -137 -19 -12 -41 -28 -48 -36 -8 -11 -15 -13 -22 -6 -14 14 -9 434 5
434 6 0 11 -11 13 -25 6 -43 32 -31 32 15 0 27 5 43 15 46 10 4 15 20 15 50
l0 44 -197 0 c-169 0 -202 -3 -225 -18z m392 -20 c0 -5 -20 -23 -45 -41 -25
-18 -45 -35 -45 -39 -3 -41 -11 -203 -15 -306 -5 -112 -4 -130 11 -147 23 -26
56 -24 118 7 44 22 166 134 166 153 0 3 25 33 56 66 31 33 66 77 76 98 11 20
24 40 29 43 5 3 9 29 9 57 0 48 -3 54 -33 75 -18 12 -39 22 -46 22 -7 0 -9 5
-6 10 8 13 372 14 379 1 4 -5 -14 -19 -38 -31 -50 -24 -182 -158 -331 -335
-32 -38 -68 -79 -79 -91 -58 -56 -58 -58 -39 -95 10 -18 23 -38 29 -44 6 -5
33 -44 59 -85 27 -41 66 -98 87 -126 21 -28 38 -56 38 -62 0 -6 6 -15 13 -19
7 -4 24 -26 37 -48 13 -22 30 -44 37 -48 7 -4 13 -15 13 -22 0 -8 5 -15 10
-15 6 0 10 -6 10 -14 0 -20 104 -120 132 -126 12 -3 23 -11 26 -18 3 -9 -38
-12 -172 -12 -150 0 -176 2 -176 15 0 9 9 15 25 15 23 0 25 4 25 45 0 41 -19
89 -43 106 -4 3 -17 23 -29 45 -11 21 -24 41 -27 44 -4 3 -18 23 -31 45 -13
22 -35 51 -47 65 -13 14 -23 30 -23 36 0 6 -13 25 -30 44 -16 18 -32 42 -36
53 -15 46 -80 87 -139 87 l-45 0 -1 -247 c-1 -137 0 -257 1 -268 2 -20 32 -47
63 -55 10 -3 18 -9 18 -15 -1 -6 -63 -11 -161 -13 -138 -2 -160 0 -160 13 0 8
8 15 19 15 10 0 31 16 46 36 l27 35 -1 500 -2 501 -27 25 c-15 14 -37 32 -49
40 -13 8 -20 19 -17 24 7 11 334 12 334 1z"/>
<path d="M3166 2291 c-7 -11 18 -33 27 -24 4 3 7 12 7 20 0 15 -26 18 -34 4z"/>
<path d="M4777 2293 c-13 -12 -7 -23 13 -23 11 0 20 7 20 15 0 15 -21 21 -33
8z"/>
<path d="M1153 2237 l-22 -12 25 -12 c22 -10 24 -9 24 13 0 13 -1 24 -2 24 -2
-1 -13 -6 -25 -13z"/>
<path d="M1612 2203 c3 -19 48 -32 48 -14 0 10 -31 31 -45 31 -4 0 -5 -8 -3
-17z"/>
<path d="M7552 2158 c2 -13 8 -23 13 -23 6 0 11 10 13 23 2 15 -2 22 -13 22
-11 0 -15 -7 -13 -22z"/>
<path d="M4729 2114 c-9 -11 -10 -23 -3 -42 13 -36 25 -34 41 5 12 29 11 33
-6 42 -14 8 -22 7 -32 -5z"/>
<path d="M450 2010 c0 -16 4 -30 9 -30 12 0 19 21 13 43 -7 28 -22 20 -22 -13z"/>
<path d="M2037 2024 c-4 -4 -7 -18 -7 -31 0 -18 5 -24 18 -21 11 2 16 11 14
23 -4 25 -16 38 -25 29z"/>
<path d="M1732 1928 c3 -7 13 -15 24 -17 10 -1 26 -9 35 -17 9 -8 19 -11 22
-7 12 11 8 23 -7 23 -8 0 -16 7 -20 15 -7 18 -60 21 -54 3z"/>
<path d="M7340 1925 c0 -8 7 -15 15 -15 8 0 15 7 15 15 0 8 -7 15 -15 15 -8 0
-15 -7 -15 -15z"/>
<path d="M990 1922 c0 -15 28 -47 35 -40 4 3 -3 16 -14 27 -12 12 -21 17 -21
13z"/>
<path d="M510 1845 c0 -8 5 -15 10 -15 6 0 10 7 10 15 0 8 -4 15 -10 15 -5 0
-10 -7 -10 -15z"/>
<path d="M5345 1780 c-3 -5 3 -10 14 -10 12 0 21 5 21 10 0 6 -6 10 -14 10 -8
0 -18 -4 -21 -10z"/>
<path d="M1165 1749 c-4 -6 -5 -13 -2 -16 8 -7 47 7 47 18 0 13 -37 11 -45 -2z"/>
<path d="M1317 1733 c-17 -16 -5 -33 23 -33 19 0 30 5 30 14 0 20 -39 34 -53
19z"/>
<path d="M712 1689 c2 -6 8 -10 13 -10 5 0 11 4 13 10 2 6 -4 11 -13 11 -9 0
-15 -5 -13 -11z"/>
<path d="M1201 1686 c12 -10 59 -15 59 -6 0 5 -14 10 -32 10 -17 0 -29 -2 -27
-4z"/>
<path d="M775 1661 c-6 -11 9 -23 19 -14 9 9 7 23 -3 23 -6 0 -12 -4 -16 -9z"/>
<path d="M644 1605 c-7 -18 3 -35 21 -35 21 0 28 19 15 35 -16 19 -29 19 -36
0z"/>
<path d="M4181 1576 c-10 -12 -8 -17 8 -25 22 -12 37 0 27 24 -7 19 -20 19
-35 1z"/>
<path d="M4280 1570 c0 -13 7 -20 18 -20 26 0 34 11 21 27 -17 20 -39 16 -39
-7z"/>
<path d="M7780 1575 c-10 -12 -9 -16 4 -21 9 -3 23 -3 32 0 13 5 14 9 4 21 -7
8 -16 15 -20 15 -4 0 -13 -7 -20 -15z"/>
<path d="M1125 1451 c-9 -15 44 -33 73 -26 13 3 22 11 19 18 -5 15 -83 22 -92
8z"/>
<path d="M4820 1439 c0 -25 33 -22 38 4 2 12 -3 17 -17 17 -15 0 -21 -6 -21
-21z"/>
<path d="M2207 1423 c-13 -12 -7 -23 12 -23 10 0 22 -7 25 -16 3 -8 10 -12 16
-9 6 4 3 15 -7 30 -18 24 -34 31 -46 18z"/>
<path d="M1700 1384 c0 -9 7 -14 17 -12 25 5 28 28 4 28 -12 0 -21 -6 -21 -16z"/>
<path d="M6325 1337 c-4 -10 -5 -21 -1 -24 10 -10 18 4 13 24 -4 17 -4 17 -12
0z"/>
<path d="M1220 1145 c0 -8 7 -15 15 -15 8 0 15 7 15 15 0 8 -7 15 -15 15 -8 0
-15 -7 -15 -15z"/>
<path d="M5590 1118 c0 -26 21 -37 46 -26 32 15 25 32 -14 36 -22 2 -32 -1
-32 -10z"/>
<path d="M6937 1069 c-23 -13 -13 -29 19 -29 17 0 24 5 24 20 0 22 -15 25 -43
9z"/>
<path d="M7016 1073 c-12 -12 -6 -33 9 -33 8 0 15 6 15 14 0 17 -14 28 -24 19z"/>
<path d="M5506 1061 c-7 -11 18 -33 27 -24 4 3 7 12 7 20 0 15 -26 18 -34 4z"/>
<path d="M5660 1055 c0 -8 9 -15 20 -15 11 0 20 7 20 15 0 8 -9 15 -20 15 -11
0 -20 -7 -20 -15z"/>
<path d="M5032 999 c2 -6 8 -10 13 -10 5 0 11 4 13 10 2 6 -4 11 -13 11 -9 0
-15 -5 -13 -11z"/>
<path d="M2910 970 c0 -5 7 -10 15 -10 8 0 15 5 15 10 0 6 -7 10 -15 10 -8 0
-15 -4 -15 -10z"/>
<path d="M4205 970 c-3 -5 3 -10 14 -10 12 0 21 5 21 10 0 6 -6 10 -14 10 -8
0 -18 -4 -21 -10z"/>
<path d="M6443 952 c7 -33 1 -44 -35 -59 -23 -10 -28 -19 -28 -47 0 -21 -6
-36 -15 -40 -8 -3 -15 -12 -15 -21 0 -8 -4 -15 -10 -15 -5 0 -10 -7 -10 -16 0
-10 6 -13 18 -10 12 4 27 -5 46 -29 16 -19 35 -35 42 -35 7 0 22 -9 32 -21 11
-11 28 -19 38 -17 22 4 28 -19 20 -77 -6 -38 -10 -43 -39 -48 -18 -3 -40 -8
-49 -12 -13 -5 -18 -2 -18 9 0 9 8 16 20 16 11 0 20 7 20 15 0 8 -3 15 -8 15
-4 0 -15 18 -25 40 -18 43 -34 51 -43 23 -3 -10 -12 -30 -20 -45 -35 -65 2
-102 114 -111 59 -5 74 -3 79 9 3 8 18 14 34 14 28 0 29 2 29 45 0 32 -4 45
-14 45 -8 0 -16 -10 -18 -22 -2 -12 -8 -23 -15 -25 -9 -3 -12 10 -10 45 2 40
-2 54 -23 75 -14 15 -33 27 -43 27 -10 0 -20 7 -23 15 -4 8 -12 15 -19 15 -20
0 -44 34 -47 65 -4 58 2 85 17 85 11 0 15 -11 15 -42 0 -24 4 -47 8 -53 9 -12
69 -55 77 -55 17 0 65 -46 65 -62 0 -10 7 -21 15 -24 8 -4 15 -12 15 -20 0 -8
7 -14 15 -14 8 0 15 5 15 12 0 26 -44 100 -64 108 -11 4 -32 20 -45 34 -14 14
-35 26 -48 26 -19 0 -23 5 -23 31 0 35 16 69 32 69 13 0 58 -47 58 -60 0 -5 9
-14 21 -20 33 -18 59 11 52 58 -10 67 -17 72 -86 70 -75 -2 -86 3 -79 37 3 19
0 25 -13 25 -14 0 -16 -6 -12 -28z m142 -72 c3 -5 4 -14 0 -20 -8 -13 -35 -1
-35 16 0 16 26 19 35 4z"/>
<path d="M4496 933 c-4 -5 -67 -10 -139 -13 -130 -5 -132 -5 -135 -29 -2 -15
3 -28 12 -33 14 -8 16 -32 16 -161 0 -140 -2 -154 -20 -170 -23 -20 -25 -30
-7 -45 13 -11 296 -20 314 -9 12 8 5 106 -9 125 -18 22 -57 15 -64 -13 -4 -16
-13 -25 -26 -25 -12 0 -43 -14 -70 -31 -45 -27 -89 -36 -88 -16 0 4 0 90 0
192 l0 185 24 0 c31 0 44 -20 22 -32 -20 -11 -22 -102 -1 -138 12 -22 11 -27
-1 -41 -19 -21 -16 -140 4 -147 9 -3 12 16 12 72 l0 76 30 0 c18 0 30 -5 30
-13 0 -18 32 -47 52 -47 27 0 43 52 39 128 -1 26 -33 30 -87 10 -26 -9 -36 -9
-48 1 -21 17 -21 75 0 95 27 27 57 19 98 -29 43 -50 60 -55 77 -24 22 42 -9
158 -35 132z m-6 -57 c0 -8 -4 -17 -8 -20 -13 -8 -35 11 -28 23 10 16 36 14
36 -3z m-30 -170 c0 -41 -16 -55 -35 -30 -9 13 -10 24 -2 41 16 35 37 29 37
-11z m33 -180 c7 -18 -1 -26 -25 -26 -18 0 -25 20 -11 33 11 12 31 8 36 -7z"/>
<path d="M5677 922 c-22 -24 -21 -42 1 -58 15 -11 17 -31 17 -168 0 -140 -2
-156 -19 -169 -13 -9 -16 -20 -12 -35 8 -23 13 -24 71 -24 214 0 221 0 234 29
7 15 15 48 18 73 5 41 3 47 -18 56 -16 7 -33 7 -58 -2 -31 -10 -36 -17 -38
-45 -1 -33 -24 -59 -50 -59 -21 0 -19 328 2 336 9 4 15 19 15 35 0 28 -1 29
-54 29 -30 0 -58 5 -61 10 -10 15 -30 12 -48 -8z m100 -224 c-2 -179 -3 -193
-21 -196 -28 -6 -42 14 -25 34 10 12 15 56 17 158 4 121 2 144 -12 155 -26 21
-19 41 13 41 l29 0 -1 -192z m153 -179 c0 -16 -5 -20 -27 -17 -31 4 -42 24
-16 31 35 9 43 7 43 -14z"/>
<path d="M3491 918 c-17 -6 -21 -16 -21 -57 0 -55 26 -121 47 -121 7 0 13 9
13 20 0 11 9 28 20 37 26 22 27 66 3 61 -10 -2 -19 -13 -21 -26 -2 -12 -10
-22 -18 -22 -11 0 -14 10 -12 38 2 31 7 38 27 40 17 3 30 -4 43 -20 15 -20 18
-44 18 -174 0 -123 -3 -154 -15 -164 -26 -22 -17 -48 23 -69 27 -14 43 -16 55
-10 9 6 21 8 26 4 15 -9 59 16 64 37 4 12 -2 26 -14 36 -17 15 -19 31 -19 159
0 78 4 144 9 147 5 3 21 -12 35 -35 22 -33 31 -39 49 -33 12 3 23 8 25 9 5 4
6 134 2 138 -9 8 -319 13 -339 5z m190 -217 c-1 -102 -4 -188 -7 -193 -7 -12
-42 -10 -50 3 -3 6 -1 16 5 22 14 14 15 214 1 287 -12 61 -7 72 27 68 l26 -3
-2 -184z m117 166 c2 -10 1 -25 -2 -34 -5 -13 -11 -11 -31 11 -32 35 -32 48 2
44 17 -2 29 -10 31 -21z"/>
<path d="M2874 891 c-37 -31 -64 -74 -64 -99 0 -10 -5 -23 -12 -30 -9 -9 -7
-12 10 -12 12 0 22 -4 22 -9 0 -18 47 -61 67 -61 27 0 34 -9 23 -31 -9 -15 -5
-18 27 -21 33 -3 38 -7 41 -30 4 -30 -23 -78 -43 -78 -7 0 -18 13 -23 29 -16
45 -49 70 -93 69 -42 0 -61 -14 -35 -24 11 -4 16 -19 16 -48 0 -56 34 -76 131
-76 73 0 79 3 135 58 18 17 40 32 48 32 25 0 19 28 -6 32 -15 2 -23 10 -24 23
-3 50 -48 100 -121 136 -24 12 -44 28 -45 37 -2 29 3 67 11 75 14 14 41 -5 41
-28 0 -17 9 -26 31 -34 67 -23 79 -13 79 70 l0 49 -93 -1 c-85 -1 -95 -3 -123
-28z m173 -17 c10 -27 -13 -38 -35 -16 -11 11 -18 23 -14 26 11 12 43 6 49
-10z m-147 -34 c0 -11 -5 -20 -12 -20 -9 0 -9 -3 0 -12 7 -7 12 -22 12 -35 0
-15 9 -27 23 -34 29 -13 55 -29 95 -57 30 -22 32 -27 32 -88 0 -50 -3 -64 -15
-64 -11 0 -15 12 -15 51 0 55 -28 98 -63 99 -42 0 -128 120 -100 139 5 3 12
14 16 24 9 23 27 22 27 -3z m-30 -285 c0 -8 9 -19 21 -26 16 -8 18 -14 9 -22
-9 -9 -14 -8 -24 6 -7 9 -18 17 -25 17 -12 0 -15 32 -5 43 10 9 24 -2 24 -18z"/>
<path d="M4945 899 c-4 -13 -1 -27 9 -38 23 -26 24 -312 1 -331 -9 -7 -15 -23
-13 -34 3 -20 9 -21 153 -21 137 0 150 2 153 18 2 10 -3 26 -11 35 -8 9 -17
26 -19 37 -5 31 -31 29 -53 -4 -19 -30 -57 -47 -75 -36 -6 4 -10 29 -10 56 0
50 -13 89 -29 89 -5 0 -11 -23 -15 -51 -5 -38 -3 -57 9 -75 22 -34 19 -46 -12
-42 l-28 3 0 190 0 190 24 3 c32 5 45 -18 21 -35 -15 -11 -18 -22 -13 -66 3
-28 9 -56 14 -61 5 -6 9 -21 9 -34 0 -21 3 -23 30 -17 18 4 30 3 30 -4 0 -5
11 -22 25 -37 24 -26 26 -26 45 -9 12 11 20 31 20 51 0 18 5 36 10 39 7 4 6
13 -1 27 -9 16 -7 24 11 40 29 27 22 50 -23 72 -28 13 -36 21 -28 29 9 9 17 8
32 -2 25 -15 45 -1 36 23 -5 14 -29 16 -151 16 -138 0 -145 -1 -151 -21z m216
-51 c10 -13 18 -27 19 -32 0 -5 8 -15 18 -22 16 -12 15 -13 -7 -14 -13 0 -38
-9 -55 -20 -37 -22 -81 -17 -71 9 4 9 9 30 12 46 2 17 6 36 9 43 6 20 54 14
75 -10z m17 -145 c-4 -43 -25 -55 -34 -19 -8 33 1 56 21 56 13 0 15 -9 13 -37z
m35 -188 c-6 -18 -34 -16 -41 3 -2 7 6 12 22 12 19 0 24 -4 19 -15z"/>
<path d="M4160 820 c0 -5 9 -19 21 -31 27 -27 45 -12 23 19 -15 22 -44 30 -44
12z"/>
<path d="M4755 790 c-8 -14 3 -30 21 -30 8 0 14 9 14 20 0 21 -24 28 -35 10z"/>
<path d="M3087 764 c-11 -12 3 -24 29 -24 15 0 24 6 24 15 0 15 -40 21 -53 9z"/>
<path d="M4047 764 c-4 -4 -7 -16 -7 -26 0 -19 -20 -24 -35 -9 -6 6 -19 2 -34
-10 -21 -17 -23 -23 -13 -39 7 -12 8 -21 2 -25 -6 -3 -10 -12 -10 -19 0 -9 17
-13 58 -12 44 0 61 5 74 21 15 18 15 21 2 32 -11 8 -15 24 -12 49 3 35 -9 53
-25 38z"/>
<path d="M3286 701 c-7 -46 -2 -64 31 -99 l24 -26 6 22 c7 28 29 28 36 1 3
-12 10 -18 16 -14 16 9 13 35 -3 35 -16 0 -29 41 -20 65 9 23 -24 55 -56 55
-24 0 -28 -5 -34 -39z"/>
<path d="M4713 733 c-7 -2 -13 -21 -13 -41 0 -43 26 -66 63 -56 17 4 30 -2 48
-20 26 -28 69 -35 69 -12 0 7 -8 16 -18 18 -15 4 -18 14 -17 52 2 47 -10 70
-26 45 -6 -11 -11 -10 -27 4 -18 16 -53 21 -79 10z"/>
<path d="M5450 726 c0 -8 -7 -16 -15 -20 -11 -4 -14 -13 -9 -33 10 -40 24 -54
46 -47 11 3 34 -3 54 -15 39 -23 48 -16 42 36 -2 19 -8 28 -20 27 -13 -1 -18
6 -18 26 0 29 -15 40 -56 40 -14 0 -24 -6 -24 -14z"/>
<path d="M6162 717 c-12 -13 -22 -32 -22 -43 0 -11 -5 -25 -12 -32 -17 -17 18
-28 37 -12 22 18 65 -12 65 -45 0 -16 6 -25 15 -25 10 0 15 11 15 35 0 19 -4
35 -10 35 -14 0 -12 78 2 82 22 8 -3 28 -36 28 -21 0 -40 -8 -54 -23z"/>
<path d="M6278 703 c-18 -4 -26 -53 -10 -53 12 0 42 34 42 48 0 12 -3 13 -32
5z"/>
<path d="M5225 611 c-8 -14 16 -62 29 -58 6 2 12 18 14 35 3 26 0 32 -17 32
-11 0 -22 -4 -26 -9z"/>
<path d="M4105 590 c-4 -6 -3 -16 3 -22 6 -6 12 -6 17 2 4 6 3 16 -3 22 -6 6
-12 6 -17 -2z"/>
<path d="M4045 571 c-6 -11 9 -23 19 -14 9 9 7 23 -3 23 -6 0 -12 -4 -16 -9z"/>
<path d="M4744 545 c-10 -24 12 -42 34 -29 24 16 21 38 -6 42 -13 2 -25 -3
-28 -13z"/>
<path d="M6173 534 c-9 -23 13 -40 32 -24 8 7 15 19 15 26 0 19 -39 18 -47 -2z"/>
<path d="M6290 515 c0 -8 7 -15 15 -15 8 0 15 7 15 15 0 8 -7 15 -15 15 -8 0
-15 -7 -15 -15z"/>
<path d="M5594 465 c-8 -21 3 -45 20 -45 20 0 32 40 15 51 -20 13 -29 11 -35
-6z"/>
<path d="M3596 403 c-11 -11 -6 -23 9 -23 8 0 15 4 15 9 0 13 -16 22 -24 14z"/>
</g>
</svg>
